<svg width="214" height="72" viewBox="0 0 214 72" fill="none" xmlns="http://www.w3.org/2000/svg">
<path d="M37.1154 29.4614C37.8643 29.7994 41.6837 33.1679 42.4666 33.9228C43.7624 35.1736 46.0151 37.5162 46.212 40.2828C46.392 42.8454 44.4883 58.939 48.7187 57.1813C50.3524 56.1894 50.0425 49.7124 51.4333 47.8757C55.5676 47.8757 53.123 55.8065 54.7228 57.6992C57.7593 58.2231 57.7873 52.494 57.9283 49.9144C58.3622 41.8706 56.5485 38.4341 62.9975 32.8629C65.2512 30.9142 68.4217 28.7785 67.3629 26.6329C65.7691 26.1149 64.5803 26.9318 63.3865 27.6297C55.6916 32.136 51.5962 33.6848 42.9955 29.0945C41.8687 28.4916 40.6299 27.7597 39.4971 27.1628C37.9873 26.3689 36.3935 25.2311 35.6496 26.7519C34.4778 27.2698 33.9599 28.3006 33.284 29.5344C27.1099 40.9807 22.6266 40.5578 11.8282 40.7837C10.2675 40.8177 8.09878 40.7837 8.90466 42.7724C9.3156 43.0144 9.80552 43.2964 10.2225 43.5613C13.8449 44.3102 20.244 45.1501 23.0935 47.3188C26.811 50.1353 30.4164 64.4992 35.1707 62.6174C36.0156 60.0658 32.0272 54.9226 33.064 52.9009C35.0527 51.9041 36.7485 54.5177 37.4464 55.6445C38.1453 56.7713 39.7 60.0328 40.7759 59.9199C43.2655 58.866 40.8888 54.2867 40.1 52.597C38.9731 50.1583 37.6553 48.0906 36.4775 45.747C34.0099 40.8407 33.7569 39.7029 35.8526 33.4218C36.3655 32.137 36.7925 30.8202 37.1314 29.4784L37.1144 29.4614H37.1154ZM52.0142 22.7804C56.7515 21.5076 57.0334 29.7874 53.096 30.5093C49.4905 31.1682 46.753 24.2232 52.0142 22.7804ZM22.1037 30.1033C24.1824 29.2925 25.9111 31.3762 26.526 32.8069C27.3259 34.7167 26.526 37.2403 24.6503 37.6122C22.5376 38.0292 20.5049 36.1984 19.975 34.8856C19.622 33.9718 19.648 32.9549 20.048 32.06C20.4479 31.1652 21.1878 30.4673 22.1047 30.1203V30.1033H22.1037ZM64.5033 2.14756C62.4076 0.519801 58.7072 -0.184093 53.4739 0.0408733C48.2407 0.265839 41.6167 1.40367 34.6538 3.1724C27.7508 4.90414 20.9948 7.1758 14.4488 9.96538C8.34274 12.619 3.38049 15.5415 0 18.5891L4.16237 34.9246C6.97895 32.108 11.7052 29.2915 17.8783 26.6329C24.6903 23.7663 31.7062 21.4097 38.8671 19.5799C46.19 17.6812 53.124 16.4194 58.2782 16.2004C63.4324 15.9805 66.8569 16.7244 68.6827 18.4541L64.5033 2.14656V2.14756ZM67.6798 15.2946C66.525 14.3427 64.8632 13.7058 62.6436 13.4079C61.6597 9.98338 60.6819 6.55789 59.709 3.13341C62.0187 3.42036 63.7814 4.02327 65.0322 4.92514L67.6798 15.2956V15.2946ZM63.8884 2.14756L64.2993 2.40652C64.3743 2.5025 64.4263 2.61449 64.4513 2.73347C64.5693 3.2014 64.6883 3.66833 64.8122 4.13626C64.8512 4.28823 64.8512 4.39022 64.8122 4.36122L64.4063 4.10226C64.3273 4.00828 64.2733 3.89629 64.2483 3.77531L63.8824 2.37852C63.8374 2.22055 63.8434 2.11956 63.8884 2.14756V2.14756ZM62.4016 1.45466L62.9145 1.65763C63.0035 1.74162 63.0625 1.8526 63.0835 1.97258L63.4554 3.38037C63.4944 3.53235 63.4894 3.63433 63.4554 3.61134L62.9485 3.40837C62.8555 3.32638 62.7915 3.2154 62.7685 3.09341L62.3746 1.69062C62.3296 1.53865 62.3466 1.43166 62.4026 1.45366L62.4016 1.45466ZM60.5939 0.947737L61.2078 1.08872C61.2698 1.08872 61.3538 1.24069 61.3998 1.39267L61.7887 2.78446C61.8277 2.93644 61.7887 3.04342 61.7497 3.02642L61.1468 2.88545C61.0788 2.88545 60.9888 2.73947 60.9438 2.58649C60.8158 2.12456 60.6849 1.66063 60.5499 1.1947C60.5049 1.04272 60.5269 0.929739 60.5949 0.940738V0.946737L60.5939 0.947737ZM58.4642 0.626785L59.1791 0.705773C59.2521 0.705773 59.3481 0.846752 59.3931 0.998729L59.793 2.38452C59.838 2.5365 59.793 2.64948 59.737 2.63848L59.0271 2.55349C58.9481 2.55349 58.8471 2.41252 58.8071 2.26654L58.4012 0.880747C58.3562 0.734769 58.3902 0.621786 58.4692 0.626785H58.4632H58.4642ZM56.0256 0.496805H56.8364C56.9264 0.496805 57.0334 0.626785 57.0734 0.778762L57.4563 2.18155C57.5013 2.33353 57.4563 2.45151 57.3834 2.44651H56.5725C56.4825 2.44651 56.3695 2.32253 56.3245 2.17055L55.9136 0.784761C55.8966 0.615787 55.9366 0.491805 56.0266 0.497804L56.0256 0.496805ZM53.282 0.564794L54.1888 0.513802C54.2848 0.513802 54.3968 0.631784 54.4478 0.783761L54.8587 2.16955C54.9037 2.32153 54.8587 2.44551 54.7628 2.45151L53.8559 2.4905C53.7549 2.4905 53.6359 2.37752 53.5969 2.22554L53.174 0.828755C53.135 0.676778 53.18 0.563795 53.281 0.563795L53.282 0.564794ZM50.2574 0.79576L51.2603 0.688776C51.3673 0.688776 51.4852 0.79576 51.5362 0.947737L51.9472 2.33953C51.9922 2.4915 51.9472 2.62148 51.8342 2.62648L50.8373 2.72247C50.7304 2.72247 50.6004 2.62148 50.5554 2.46851L50.1444 1.08272C50.0935 0.92474 50.1335 0.78976 50.2574 0.778762V0.79576V0.79576ZM46.9899 1.2017L48.0598 1.05572C48.1727 1.05572 48.3017 1.15171 48.3467 1.30368L48.7527 2.69547C48.7977 2.84745 48.7527 2.98243 48.6227 2.99943L47.5528 3.14541C47.4109 3.14341 47.2889 3.04242 47.2599 2.90344L46.8599 1.51165C46.815 1.34268 46.8709 1.2017 46.9899 1.1847V1.2017ZM43.5144 1.76461L44.6413 1.56764C44.7853 1.56264 44.9122 1.66263 44.9402 1.80461L45.3402 3.2014C45.3672 3.26139 45.3672 3.33038 45.3402 3.39037C45.3132 3.45036 45.2622 3.49635 45.1992 3.51635L44.0724 3.71332C43.9304 3.71932 43.8034 3.62133 43.7734 3.48236L43.3795 2.08557C43.3465 2.02357 43.3425 1.95059 43.3695 1.8856C43.3965 1.82061 43.4525 1.77261 43.5194 1.75362L43.5134 1.76461H43.5144ZM39.881 2.47451L41.0578 2.25454C41.2048 2.24054 41.3398 2.34053 41.3678 2.48551L41.7507 3.88829C41.7777 3.95128 41.7767 4.02327 41.7477 4.08526C41.7187 4.14725 41.6647 4.19425 41.5987 4.21424L40.4159 4.46221C40.2699 4.48021 40.135 4.38122 40.106 4.23724C39.978 3.74532 39.851 3.27239 39.723 2.81746C39.692 2.75147 39.692 2.67548 39.722 2.60949C39.752 2.5435 39.81 2.4935 39.88 2.47451H39.881ZM36.1236 3.33038L37.3294 3.04342C37.4744 3.02242 37.6103 3.11941 37.6393 3.26339L38.0113 4.67118C38.0343 4.73717 38.0303 4.80916 37.9993 4.87215C37.9683 4.93514 37.9143 4.98213 37.8473 5.00413L36.6135 5.29708C36.4745 5.30508 36.3515 5.2081 36.3265 5.07212L35.9606 3.66433C35.9156 3.52735 35.9886 3.38037 36.1236 3.33238V3.33038ZM36.9964 16.9003C32.8221 18.0272 28.5867 19.317 24.6043 20.7368C23.8534 17.2143 23.0895 13.6898 22.3116 10.1633C26.1981 8.77756 30.2994 7.51575 34.3438 6.45091L36.9974 16.9003H36.9964ZM32.3041 4.32223L33.527 3.99528C33.5969 3.98228 33.6679 3.99728 33.7269 4.03727C33.7849 4.07727 33.8249 4.13926 33.8369 4.20925L34.1978 5.63403C34.2428 5.77701 34.1649 5.92899 34.0229 5.97798L32.7891 6.30993C32.6461 6.33793 32.5081 6.24394 32.4791 6.10196C32.3661 5.61703 32.2421 5.13911 32.1072 4.66518C32.0672 4.5162 32.1552 4.36322 32.3041 4.32123V4.32223ZM28.4677 5.44906L29.6905 5.07212C29.7595 5.05512 29.8325 5.06912 29.8915 5.10811C29.9505 5.1481 29.9895 5.21009 30.0005 5.28008L30.3444 6.69387C30.3874 6.83985 30.3114 6.99383 30.1695 7.04882L28.9356 7.41476C28.8667 7.43176 28.7937 7.41776 28.7347 7.37877C28.6757 7.33877 28.6367 7.27678 28.6257 7.20679L28.2937 5.78701C28.2447 5.63903 28.3217 5.48005 28.4687 5.42606V5.44906H28.4677ZM24.6713 6.62588L25.8771 6.23194C25.9451 6.21494 26.0161 6.22794 26.0741 6.26594C26.1321 6.30493 26.1711 6.36592 26.1811 6.43391L26.502 7.88769C26.542 8.03267 26.467 8.18565 26.327 8.24264L25.1162 8.64258C25.0482 8.66158 24.9762 8.64958 24.9182 8.61058C24.8603 8.57159 24.8213 8.5096 24.8123 8.43961L24.4913 7.01482C24.4343 6.85785 24.5153 6.68387 24.6713 6.62588V6.62588ZM20.9588 7.91569L22.1307 7.49275C22.1957 7.47375 22.2666 7.48575 22.3226 7.52375C22.3786 7.56174 22.4156 7.62273 22.4236 7.69072L22.7336 9.11551C22.7726 9.26248 22.7016 9.41646 22.5646 9.48145L21.4038 9.90939C21.3378 9.93038 21.2668 9.92039 21.2098 9.88139C21.1528 9.8434 21.1168 9.78041 21.1108 9.71242L20.8009 8.28163C20.7629 8.13965 20.8279 7.98968 20.9588 7.92069V7.91469V7.91569ZM17.3824 9.28448L18.5092 8.83955C18.6332 8.79456 18.7572 8.87854 18.7912 9.03652C18.8922 9.51545 18.9881 9.98838 19.0951 10.4673C19.1331 10.6153 19.0621 10.7703 18.9262 10.8392L17.7993 11.2842C17.6753 11.3352 17.5514 11.2452 17.5174 11.0922L17.2184 9.66143C17.1794 9.51645 17.2444 9.36247 17.3764 9.28948L17.3824 9.28348V9.28448ZM13.9689 10.7043L15.0337 10.2363C15.1517 10.1853 15.2757 10.2753 15.3037 10.4283L15.6027 11.8591C15.6386 12.0031 15.5777 12.154 15.4507 12.231L14.3808 12.699C14.2679 12.75 14.1499 12.665 14.1159 12.507L13.8229 11.0702C13.7879 10.9292 13.8469 10.7823 13.9689 10.7043ZM10.7804 12.191L11.7722 11.7121C11.8852 11.6611 11.9972 11.7401 12.0312 11.8981L12.3241 13.3349C12.3621 13.4779 12.3051 13.6288 12.1832 13.7118L11.1913 14.1907C11.0843 14.2417 10.9713 14.1567 10.9374 14.0048L10.6384 12.574C10.6104 12.437 10.6654 12.295 10.7794 12.213V12.19L10.7804 12.191ZM7.82882 13.7288L8.74668 13.2329C8.84267 13.1769 8.95465 13.2609 8.98865 13.4129L9.2876 14.8436C9.3256 14.9826 9.2766 15.1316 9.16362 15.2206L8.25076 15.7165C8.15477 15.7675 8.04779 15.7165 8.01379 15.5305L7.70984 14.0998C7.68484 13.9698 7.73184 13.8358 7.83382 13.7508L7.82782 13.7278L7.82882 13.7288ZM5.15922 15.3346L5.9821 14.8276C6.07209 14.7717 6.17407 14.8276 6.20707 15.0076L6.51102 16.4324C6.55401 16.5694 6.51402 16.7184 6.41003 16.8153L5.59316 17.3223C5.50317 17.3783 5.40719 17.3223 5.37319 17.1423L5.06924 15.7115C5.02824 15.5785 5.06324 15.4346 5.15922 15.3346ZM2.77058 16.9513L3.49747 16.4334C3.57646 16.3774 3.67245 16.4334 3.71144 16.6084L4.03239 18.0282C4.07339 18.1621 4.04139 18.3071 3.94741 18.4111L3.22651 18.929C3.15353 18.985 3.05754 18.929 3.02354 18.7541L2.69659 17.3343C2.6526 17.2023 2.6806 17.0573 2.76958 16.9513H2.77058ZM0.984852 20.3988L0.629905 18.996C0.581912 18.86 0.602909 18.7081 0.685897 18.5901C0.888866 18.4101 1.10283 18.2351 1.3168 18.0602C1.38479 18.0042 1.47478 18.0602 1.51377 18.2351L1.85772 19.6429C1.89871 19.7729 1.87572 19.9149 1.79573 20.0259L1.17082 20.5498C1.12583 20.6228 1.02485 20.5438 0.984852 20.3978V20.3988ZM1.08584 21.2777C3.3485 19.32 5.82112 17.6202 8.45973 16.2084L10.7134 26.7868C8.18577 28.1226 5.83212 29.7644 3.70644 31.6761L1.08684 21.2777H1.08584ZM5.06824 33.3998L4.50532 33.8958C4.44933 33.9468 4.37034 33.8958 4.33035 33.7158L3.9814 32.308C3.93841 32.185 3.9504 32.0491 4.0154 31.9361L4.57831 31.4351C4.6403 31.3792 4.72429 31.4631 4.75828 31.6151L5.06824 33.0289C5.12323 33.1469 5.12323 33.2829 5.06824 33.4008V33.3998ZM7.03394 31.8561L6.36404 32.346C6.29105 32.402 6.20607 32.318 6.17207 32.166L5.84012 30.7522C5.79713 30.6243 5.82012 30.4833 5.90211 30.3753L6.57801 29.8794C6.651 29.8234 6.74098 29.9074 6.78098 30.0594L7.10193 31.4791C7.13993 31.6131 7.10893 31.7571 7.01694 31.8621L7.03394 31.8561V31.8561ZM9.34859 30.3243L8.57171 30.8142C8.48672 30.8652 8.39174 30.7802 8.35774 30.6283L8.04279 29.2035C8.00079 29.0705 8.03579 28.9255 8.13278 28.8265L8.91566 28.3366C9.00064 28.2806 9.10163 28.3646 9.13562 28.5166L9.44558 29.9414C9.48657 30.0813 9.44258 30.2333 9.33259 30.3303L9.34959 30.3243H9.34859ZM12.0072 28.8035L11.1063 29.2935C11.0103 29.3445 10.9094 29.2595 10.8754 29.1075L10.5764 27.6827C10.5354 27.5457 10.5804 27.3978 10.6894 27.3058L11.5793 26.8208C11.6802 26.7698 11.7822 26.8488 11.8162 27.0068L12.1152 28.4376C12.1512 28.5756 12.1022 28.7206 11.9912 28.8095L12.0082 28.8035H12.0072ZM14.9867 27.3048L14.0009 27.7777C13.8939 27.8287 13.7809 27.7437 13.7529 27.5917L13.46 26.1549C13.422 26.015 13.473 25.865 13.59 25.778L14.5818 25.2991C14.6888 25.2481 14.8068 25.3331 14.8358 25.491C14.9368 25.97 15.0327 26.4429 15.1287 26.9278C15.1667 27.0748 15.1057 27.2298 14.9767 27.3108L14.9877 27.3048H14.9867ZM18.2592 25.835L17.1834 26.3029C17.0654 26.3539 16.9464 26.2689 16.9135 26.1109L16.6205 24.6742C16.5855 24.5302 16.6475 24.3802 16.7725 24.3022L17.8483 23.8343C17.9663 23.7833 18.0903 23.8683 18.1243 24.0263L18.4172 25.463C18.4552 25.613 18.3852 25.769 18.2483 25.84L18.2592 25.834V25.835ZM21.7857 24.4042L20.6589 24.8551C20.5349 24.9061 20.4049 24.8161 20.3769 24.6632L20.078 23.2324C20.042 23.0854 20.109 22.9334 20.241 22.8604L21.3678 22.4095C21.4318 22.3885 21.5018 22.3985 21.5578 22.4355C21.6137 22.4725 21.6497 22.5335 21.6547 22.6015L21.9647 24.0383C21.9987 24.1922 21.9187 24.3482 21.7727 24.4102L21.7837 24.4042H21.7857ZM12.1532 26.01L9.9565 15.4146C13.348 13.6838 16.8385 12.157 20.4109 10.8402C21.1618 14.3707 21.9127 17.9002 22.6646 21.4307C19.0731 22.7475 15.5627 24.2762 12.1532 26.01V26.01ZM25.5092 23.0304L24.2983 23.4643C24.2324 23.4853 24.1604 23.4743 24.1024 23.4364C24.0444 23.3984 24.0064 23.3364 23.9994 23.2674L23.6954 21.8426C23.6594 21.6946 23.7324 21.5416 23.8704 21.4766L25.0812 21.0427C25.1472 21.0237 25.2182 21.0357 25.2752 21.0727C25.3322 21.1107 25.3702 21.1717 25.3792 21.2397L25.6891 22.6645C25.7241 22.8134 25.6491 22.9674 25.5092 23.0304V23.0304ZM29.3956 21.7176L28.1618 22.1285C28.0938 22.1485 28.0208 22.1385 27.9618 22.1006C27.9018 22.0626 27.8618 22.0006 27.8518 21.9306L27.5309 20.5058C27.4939 20.3578 27.5708 20.2048 27.7108 20.1448L28.9496 19.7169C29.0176 19.6989 29.0906 19.7099 29.1496 19.7489C29.2086 19.7879 29.2486 19.8499 29.2586 19.9199L29.5855 21.3447C29.6305 21.4996 29.5466 21.6626 29.3936 21.7166L29.3956 21.7176ZM33.378 20.4898L32.1052 20.8447C32.0362 20.8627 31.9622 20.8517 31.9022 20.8127C31.8422 20.7738 31.8012 20.7118 31.7892 20.6418L31.4573 19.222C31.4193 19.073 31.4993 18.92 31.6432 18.867L32.916 18.4901C32.986 18.4721 33.06 18.4831 33.121 18.5211C33.182 18.5591 33.224 18.6221 33.237 18.6921L33.5749 20.1119C33.6009 20.1868 33.5959 20.2698 33.5599 20.3418C33.524 20.4128 33.46 20.4668 33.384 20.4898H33.378V20.4898ZM37.3944 19.363L36.1156 19.7179C36.0456 19.7349 35.9716 19.7219 35.9106 19.6819C35.8496 19.6429 35.8076 19.5799 35.7946 19.5089L35.4457 18.0952C35.4047 17.9492 35.4827 17.7962 35.6256 17.7462L36.8984 17.3973C36.9694 17.3823 37.0434 17.3963 37.1034 17.4373C37.1634 17.4772 37.2054 17.5402 37.2194 17.6112L37.5803 19.025C37.6143 19.167 37.5333 19.312 37.3944 19.357V19.363ZM36.3525 5.92299C40.3749 4.92614 44.2893 4.13726 47.8378 3.62433L50.8343 13.9328C47.2239 14.4957 43.2015 15.3126 39.0501 16.3554C38.1523 12.8779 37.2534 9.40046 36.3515 5.92299H36.3525ZM41.3768 18.3441L40.109 18.6541C39.962 18.6821 39.819 18.5871 39.788 18.4401L39.4221 17.0323C39.3781 16.8903 39.4561 16.7404 39.597 16.6944L40.8528 16.3904C41.0018 16.3664 41.1428 16.4624 41.1738 16.6104L41.5457 18.0182C41.5867 18.1551 41.5117 18.2991 41.3768 18.3451V18.3441ZM45.2582 17.4653L44.0354 17.7302C43.8854 17.7512 43.7454 17.6532 43.7144 17.5052L43.3375 16.1025C43.3125 16.0365 43.3175 15.9625 43.3495 15.8995C43.3815 15.8365 43.4385 15.7895 43.5064 15.7705L44.7233 15.5055C44.8702 15.4905 45.0052 15.5865 45.0382 15.7305L45.4272 17.1333C45.4542 17.1993 45.4502 17.2743 45.4182 17.3383C45.3862 17.4023 45.3272 17.4483 45.2582 17.4662V17.4653ZM49.0036 16.7384L47.8378 16.9523C47.6908 16.9643 47.5588 16.8653 47.5278 16.7214L47.1339 15.3246C47.1069 15.2626 47.1079 15.1916 47.1369 15.1296C47.1659 15.0686 47.2199 15.0226 47.2859 15.0036L48.4407 14.7897C48.5867 14.7837 48.7147 14.8836 48.7447 15.0266L49.1446 16.4234C49.1716 16.4834 49.1716 16.5524 49.1446 16.6124C49.1176 16.6724 49.0666 16.7184 49.0036 16.7384V16.7384ZM52.5071 16.1754L51.3863 16.3384C51.2423 16.3384 51.1173 16.2374 51.0873 16.0965L50.6934 14.7047C50.6484 14.5527 50.6934 14.4117 50.8283 14.3947L51.9212 14.2367C52.0632 14.2387 52.1851 14.3397 52.2141 14.4787L52.6201 15.8705C52.6591 16.0225 52.6031 16.1574 52.4851 16.1744H52.5081L52.5071 16.1754ZM55.7236 15.7755L54.7208 15.8765C54.6078 15.8765 54.4838 15.7805 54.4388 15.6225C54.3038 15.1606 54.1688 14.6987 54.0279 14.2367C53.9829 14.0848 54.0279 13.9498 54.1518 13.9378L55.1547 13.8368C55.2677 13.8368 55.3857 13.9438 55.4307 14.0908L55.8416 15.4825C55.8806 15.6515 55.8306 15.7755 55.7236 15.7755V15.7755ZM58.6582 15.5785L57.7573 15.6175C57.6563 15.6175 57.5373 15.5045 57.4983 15.3526L57.0874 13.9668C57.0424 13.8148 57.0874 13.6848 57.1884 13.6848L58.0893 13.6458C58.1852 13.6458 58.2972 13.7638 58.3432 13.9158L58.7542 15.3016C58.7991 15.4706 58.7542 15.5945 58.6582 15.6005V15.5775V15.5785ZM61.2608 15.5785H60.4669C60.3769 15.5785 60.2699 15.4546 60.2249 15.3026L59.814 13.9168C59.769 13.7648 59.814 13.6468 59.899 13.6468H60.6929C60.7778 13.6468 60.8848 13.7768 60.9238 13.9288L61.3298 15.3146C61.3978 15.4895 61.3468 15.6135 61.2678 15.6015L61.2618 15.5785H61.2608ZM52.5861 13.6918L49.5665 3.38337C52.5261 2.97743 55.5176 2.85245 58.5002 3.01143C59.499 6.43291 60.4959 9.8554 61.4917 13.2799C58.5172 13.1189 55.5336 13.2559 52.5861 13.6908V13.6918ZM63.5194 15.8155L62.8375 15.7255C62.7585 15.7255 62.6626 15.5905 62.6176 15.4386L62.2176 14.0528C62.1726 13.9008 62.2176 13.7828 62.2796 13.7938L62.9665 13.8788C63.0395 13.8788 63.1295 14.0248 63.1745 14.1717L63.5744 15.5575C63.6084 15.7095 63.5854 15.8225 63.5184 15.8165L63.5194 15.8155ZM65.4231 16.2214L64.8602 16.0695C64.7982 16.0695 64.7083 15.9175 64.6633 15.7655L64.2743 14.3737C64.2353 14.2217 64.2743 14.1088 64.3133 14.1258L64.8762 14.2777C64.9382 14.2777 65.0222 14.4357 65.0622 14.5817L65.4451 15.9735C65.4961 16.1315 65.4791 16.2384 65.4221 16.2214H65.4231ZM66.9839 16.8353C66.8379 16.7564 66.68 16.6834 66.522 16.6154C66.433 16.5314 66.374 16.4204 66.353 16.3004L65.9701 14.9036C65.9311 14.7517 65.9421 14.6497 65.9701 14.6727L66.438 14.8866C66.523 14.9756 66.58 15.0866 66.601 15.2076L66.9729 16.6044C67.0289 16.7564 67.0289 16.8583 66.9839 16.8353ZM68.2287 17.6412L67.8628 17.3593C67.7898 17.2633 67.7398 17.1513 67.7168 17.0323L67.3509 15.6355C67.3119 15.4835 67.3119 15.3816 67.3509 15.4106L67.7228 15.6865C67.7928 15.7855 67.8418 15.8995 67.8638 16.0185L68.2247 17.4213C68.2697 17.5732 68.2697 17.6752 68.2307 17.6412H68.2287ZM117.058 20.7278L118.185 21.3867L116.354 24.6252L116.433 24.6592C116.576 24.5312 116.812 24.3002 117.143 23.9663C117.678 23.4094 118.242 22.8804 118.833 22.3835C119.542 21.8116 120.296 21.2977 121.087 20.8457L121.65 21.9216C120.445 22.4665 119.31 23.1544 118.27 23.9723C118.145 24.0613 118.033 24.1672 117.938 24.2872V24.3722C118.067 24.3412 118.199 24.3242 118.332 24.3212C118.64 24.3212 118.794 24.5092 118.794 24.8841L118.766 25.0471L118.665 25.2671L118.58 25.4251C118.53 25.554 118.492 25.688 118.467 25.825V25.96C118.467 26.1799 118.557 26.2869 118.726 26.2869C119.126 26.2169 119.509 26.07 119.853 25.853C120.323 25.649 120.772 25.3991 121.194 25.1091L120.828 26.2359C120.079 26.9938 119.075 27.4477 118.011 27.5087C117.725 27.5387 117.444 27.4198 117.267 27.1938C117.124 26.9908 117.047 26.7489 117.047 26.5009C117.048 26.2379 117.105 25.979 117.216 25.74L117.312 25.548L117.368 25.447V25.2331C117.354 25.1741 117.299 25.1331 117.238 25.1371C117.133 25.1371 116.945 25.2611 116.675 25.509C116.37 25.797 116.084 26.101 115.814 26.4219C115.504 26.7828 115.251 27.1148 115.014 27.4188L113.825 27.0698L117.058 20.7268V20.7278ZM127.339 21.2907L128.466 21.8536L126.691 25.2331C126.636 25.3361 126.603 25.449 126.595 25.565C126.595 25.74 126.68 25.83 126.843 25.83C127.109 25.776 127.363 25.675 127.592 25.531C127.761 25.4301 128.037 25.2941 128.415 25.1141L128.049 26.2409C127.645 26.4899 127.226 26.7119 126.793 26.9058C126.444 27.1008 126.062 27.2288 125.666 27.2828C125.499 27.2828 125.336 27.2278 125.204 27.1248C125.053 27.0068 124.957 26.8318 124.939 26.6399V26.3469C124.975 26.0969 125.057 25.856 125.181 25.637C125.376 25.2601 125.595 24.8951 125.835 24.5442L125.767 24.4652C125.643 24.5662 125.406 24.7921 125.057 25.1411C123.656 26.5419 122.62 27.2418 121.948 27.2418C121.734 27.2408 121.531 27.1468 121.392 26.9848C121.253 26.8228 121.19 26.6079 121.221 26.3969C121.24 26.1129 121.308 25.835 121.424 25.574C121.559 25.2301 121.813 24.6892 122.19 23.9573C122.567 23.2254 123.164 22.0926 123.981 20.5778L125.108 21.1407L123.176 24.7911C123.115 24.9031 123.064 25.0201 123.024 25.1401V25.2251C123.024 25.3551 123.097 25.4221 123.204 25.4221C123.384 25.4041 123.554 25.3291 123.689 25.2081C123.881 25.0691 124.237 24.7552 124.759 24.2672C125.18 23.8913 125.518 23.5703 125.773 23.3044C126.052 23.0244 126.315 22.7285 126.562 22.4195C126.85 22.0626 127.11 21.6846 127.339 21.2877V21.2907ZM131.372 20.6038L132.499 21.1337L131.141 23.7473L131.485 23.6573L131.919 23.5783L132.218 23.5333C132.612 23.4733 133.009 23.4354 133.407 23.4204L134.483 21.1667L135.61 21.6676L134.089 24.7372L133.903 25.1601C133.836 25.3051 133.789 25.459 133.762 25.616C133.762 25.796 133.847 25.881 134.01 25.881C134.387 25.802 134.748 25.663 135.08 25.47L135.857 25.0871L135.525 26.2139C134.316 26.9088 133.516 27.2558 133.125 27.2558C132.859 27.2648 132.601 27.1698 132.404 26.9908C132.209 26.8078 132.104 26.5479 132.117 26.2809C132.296 25.602 132.569 24.9521 132.928 24.3492C132.149 24.4262 131.383 24.5982 130.646 24.8621L129.475 27.3628L128.14 26.9458L131.373 20.6028L131.372 20.6038ZM141.083 20.4288L141.348 21.3867C140.648 21.6056 140.001 21.9636 139.444 22.4405C138.923 22.8734 138.484 23.3964 138.148 23.9843C137.885 24.3892 137.728 24.8541 137.692 25.3361C137.668 25.58 137.748 25.823 137.912 26.006C138.047 26.1399 138.229 26.2149 138.419 26.2139C138.801 26.1889 139.161 26.027 139.433 25.758C139.82 25.4111 140.124 24.9821 140.323 24.5022C140.568 23.9493 140.691 23.3494 140.684 22.7445C140.684 22.6205 140.684 22.4295 140.65 22.1815L142.143 21.7706C142.187 22.0156 142.207 22.2645 142.205 22.5145C142.204 23.3374 141.987 24.1452 141.574 24.8581C141.182 25.569 140.631 26.1779 139.963 26.6379C139.388 27.0348 138.707 27.2498 138.008 27.2578C136.81 27.2578 136.211 26.6649 136.211 25.478C136.225 24.7662 136.448 24.0753 136.853 23.4893C137.313 22.8024 137.895 22.2065 138.571 21.7316C139.343 21.1817 140.189 20.7438 141.084 20.4308L141.083 20.4288ZM144.716 20.6768L145.893 21.2687L144.552 23.7363L144.698 23.8323C145.092 23.5053 145.468 23.1574 145.825 22.7904C146.76 21.8556 147.494 21.3877 148.028 21.3877C148.227 21.3917 148.421 21.4476 148.591 21.5506C148.781 21.6716 148.888 21.8896 148.867 22.1136C148.765 22.6005 148.535 23.0514 148.202 23.4204L148.078 23.5953L147.847 23.9053L147.706 24.0803L147.869 24.1812C149.202 22.8484 150.182 22.1815 150.809 22.1815C150.976 22.1835 151.138 22.2385 151.271 22.3395C151.424 22.4585 151.505 22.6485 151.485 22.8404C151.394 23.4044 151.168 23.9383 150.826 24.3952L150.443 24.9871L150.144 25.46C150.098 25.533 150.071 25.616 150.065 25.702C150.065 25.811 150.114 25.865 150.211 25.865C150.309 25.865 150.977 25.613 152.217 25.1101L151.851 26.2369C151.28 26.5489 150.822 26.7868 150.476 26.9518C150.216 27.0838 149.947 27.1968 149.67 27.2898C149.504 27.3428 149.332 27.3708 149.158 27.3748C148.821 27.4138 148.505 27.2038 148.409 26.8788L148.381 26.5969L148.409 26.3149C148.45 26.1509 148.511 25.992 148.589 25.842C148.688 25.649 148.797 25.461 148.916 25.2791L149.186 24.8451L149.399 24.4962L149.517 24.2762L149.551 24.1352L149.514 24.0253L149.405 23.9883C149.221 23.9883 148.885 24.2192 148.397 24.6812C147.909 25.1431 147.419 25.661 146.927 26.2359C146.431 26.7988 146.116 27.1938 145.981 27.3628L144.764 27.0418L146.584 23.5723C146.584 23.4034 146.584 23.3244 146.533 23.3244C146.117 23.5663 145.738 23.8653 145.406 24.2142C144.882 24.6932 144.426 25.1551 144.026 25.6C143.561 26.1519 143.143 26.7419 142.775 27.3628L141.553 26.9968L144.713 20.6488V20.6768H144.716ZM147.161 21.1387C148.471 20.2728 149.991 19.7819 151.56 19.7189C151.939 19.7149 152.317 19.7549 152.687 19.8369L153.38 18.3161C150.971 18.4141 148.627 19.126 146.57 20.3838L147.162 21.1387H147.161ZM152.202 25.1611L152.568 24.9241C152.816 24.1892 153.219 23.5173 153.751 22.9524C154.294 22.3455 154.936 21.8346 155.65 21.4427C156.231 21.0997 156.889 20.9057 157.564 20.8797C157.921 20.8537 158.274 20.9667 158.55 21.1947C158.766 21.3817 158.889 21.6526 158.888 21.9386C158.873 22.3175 158.752 22.6845 158.539 22.9974C158.164 23.4963 157.678 23.9013 157.119 24.1802C156.16 24.6902 155.138 25.0691 154.078 25.3071L154.044 25.504C154.042 25.701 154.142 25.884 154.309 25.989C154.525 26.1289 154.779 26.1959 155.036 26.1809C155.49 26.1569 155.937 26.06 156.359 25.894C156.899 25.7 157.418 25.453 157.908 25.1561L157.542 26.2379C157.019 26.5729 156.449 26.8288 155.853 26.9988C155.319 27.1698 154.763 27.2648 154.202 27.2808C153.77 27.2888 153.348 27.1478 153.008 26.8808C152.685 26.6419 152.496 26.2629 152.501 25.861L151.842 26.2719L152.208 25.1851L152.202 25.1621V25.1611ZM154.382 24.3332C155.51 24.1102 156.513 23.4763 157.198 22.5535C157.259 22.4595 157.294 22.3505 157.299 22.2385C157.299 22.0396 157.205 21.9396 157.017 21.9396C156.662 21.9676 156.325 22.1076 156.055 22.3395C155.679 22.6225 155.338 22.9494 155.041 23.3144C154.782 23.6263 154.562 23.9683 154.387 24.3342H154.381L154.382 24.3332ZM164.6 21.1107L165.794 21.7306L164.335 24.5472C164.148 24.8511 164.02 25.1871 163.958 25.539C163.958 25.736 164.031 25.838 164.172 25.838C164.431 25.789 164.681 25.698 164.91 25.568C165.287 25.3881 165.614 25.2191 165.89 25.0611L165.541 26.1879C165.209 26.4579 164.854 26.6989 164.482 26.9088C164.156 27.1088 163.787 27.2288 163.406 27.2578C163.164 27.2658 162.929 27.1808 162.747 27.0208C162.58 26.8818 162.485 26.6749 162.489 26.4579C162.492 26.3399 162.511 26.2219 162.545 26.1089L162.686 25.709L162.781 25.467L162.82 25.3941L162.876 25.2641H162.808L162.696 25.3711L162.611 25.467C162.386 25.719 162.141 25.952 161.879 26.1659C161.53 26.4569 161.152 26.7119 160.752 26.9268C160.395 27.1348 159.993 27.2508 159.58 27.2648C159.231 27.2598 158.9 27.1078 158.667 26.8478C158.372 26.5009 158.226 26.051 158.261 25.597C158.291 25.0931 158.448 24.6042 158.717 24.1772C159.045 23.6063 159.444 23.0804 159.906 22.6115C160.367 22.1245 160.894 21.7056 161.472 21.3667C161.939 21.0707 162.475 20.9037 163.026 20.8817C163.565 20.8517 164.087 21.0697 164.446 21.4736L164.626 21.1127H164.598L164.6 21.1107ZM163.242 23.6903L164.087 22.1016C163.915 21.8696 163.644 21.7316 163.355 21.7296C162.864 21.7866 162.4 21.9826 162.015 22.2925C161.458 22.6845 160.964 23.1594 160.55 23.7003C160.182 24.1152 159.96 24.6402 159.919 25.1931C159.919 25.666 160.079 25.903 160.398 25.903C160.752 25.851 161.083 25.701 161.356 25.469C161.773 25.1941 162.167 24.8851 162.533 24.5452C162.809 24.2922 163.05 24.0023 163.247 23.6833L163.241 23.6893L163.242 23.6903ZM168.736 20.6768L169.89 21.2687L168.55 23.7363L168.696 23.8323C169.09 23.5053 169.465 23.1574 169.822 22.7904C170.757 21.8556 171.491 21.3877 172.025 21.3877C172.224 21.3917 172.418 21.4476 172.588 21.5506C172.778 21.6716 172.885 21.8896 172.864 22.1136C172.768 22.5975 172.547 23.0484 172.222 23.4204L172.098 23.5953L171.867 23.9053L171.726 24.0803L171.889 24.1812C173.222 22.8484 174.203 22.1815 174.83 22.1815C174.997 22.1835 175.159 22.2385 175.292 22.3395C175.445 22.4585 175.526 22.6485 175.506 22.8404C175.415 23.4044 175.189 23.9383 174.847 24.3952L174.464 24.9871L174.165 25.46C174.119 25.533 174.092 25.616 174.086 25.702C174.086 25.811 174.135 25.865 174.232 25.865C174.33 25.865 174.998 25.613 176.237 25.1101L175.872 26.2369C175.301 26.5489 174.843 26.7868 174.497 26.9518C174.237 27.0838 173.968 27.1968 173.691 27.2898C173.525 27.3428 173.352 27.3708 173.178 27.3748C172.841 27.4138 172.525 27.2038 172.429 26.8788L172.401 26.5969L172.429 26.3149C172.47 26.1509 172.531 25.992 172.609 25.842C172.708 25.649 172.817 25.461 172.936 25.2791L173.206 24.8451L173.42 24.4962L173.538 24.2762L173.572 24.1352L173.535 24.0253L173.425 23.9883C173.241 23.9883 172.905 24.2192 172.417 24.6812C171.929 25.1431 171.439 25.661 170.947 26.2359C170.451 26.7988 170.136 27.1938 170.001 27.3628L168.796 27.0308L170.615 23.5613C170.615 23.3924 170.615 23.3134 170.564 23.3134C170.148 23.5553 169.769 23.8543 169.437 24.2032C168.914 24.6822 168.458 25.1441 168.058 25.589C167.591 26.1449 167.17 26.7379 166.802 27.3638L165.579 26.9978L168.74 20.6498L168.734 20.6778L168.736 20.6768ZM171.18 21.1387C172.49 20.2728 174.011 19.7819 175.58 19.7189C175.959 19.7149 176.336 19.7549 176.706 19.8369L177.399 18.3161C174.991 18.4141 172.646 19.126 170.589 20.3838L171.181 21.1387H171.18ZM179.748 18.914L180.835 19.444L178.581 23.8433L178.744 23.9443C179.39 23.2464 180.083 22.5935 180.817 21.9896C181.158 21.6816 181.584 21.4846 182.04 21.4267C182.269 21.4187 182.488 21.5186 182.631 21.6966C182.775 21.8706 182.852 22.0906 182.851 22.3165C182.788 22.7715 182.638 23.2094 182.407 23.6063C182.268 23.8803 182.08 24.2112 181.844 24.5982C181.619 24.9811 181.483 25.2181 181.444 25.2971C181.403 25.3771 181.382 25.466 181.382 25.556C181.378 25.616 181.403 25.675 181.45 25.714L181.574 25.765C181.703 25.759 181.829 25.728 181.946 25.675C182.104 25.613 182.307 25.523 182.543 25.4101L183.229 25.0781L182.863 26.2049C182.477 26.4609 182.074 26.6919 181.658 26.8978C181.313 27.0968 180.928 27.2168 180.531 27.2468C180.312 27.2698 180.094 27.1968 179.933 27.0468C179.772 26.8968 179.684 26.6839 179.692 26.4639C179.766 25.84 179.993 25.2441 180.351 24.7292C180.497 24.4752 180.633 24.2442 180.768 24.0363C180.903 23.8283 180.993 23.6813 181.033 23.5973L181.112 23.3944V23.2594C181.112 23.1294 181.022 23.0624 180.847 23.0624C180.525 23.1014 180.229 23.2604 180.019 23.5073C179.484 24.0143 178.994 24.5672 178.554 25.1581C178.158 25.695 177.802 26.2599 177.489 26.8478C177.185 27.4337 176.881 28.0757 176.576 28.7745L175.54 31.1852L174.351 30.8862C174.674 30.0414 175.097 28.9875 175.619 27.7257C176.14 26.4639 176.771 25.0291 177.511 23.4224C178.247 21.8116 178.993 20.3088 179.748 18.916V18.914ZM138.131 48.8585C135.36 54.1757 133.276 58.637 129.811 63.6903C128.383 65.84 126.734 67.8347 124.894 69.6444C123.643 70.8332 121.999 71.999 120.202 71.999C119.13 72.025 118.114 71.5241 117.481 70.6582C116.852 69.8404 116.414 68.8915 116.203 67.8817C113.702 56.0524 127.187 49.2305 136.853 46.9608C137.546 45.654 138.211 44.3362 138.842 43.0174C139.259 42.1315 139.67 41.2427 140.076 40.3528C139.822 40.5388 139.563 40.7137 139.31 40.8827C138.638 41.2987 137.942 41.6746 137.225 42.0096C136.514 42.3625 135.783 42.6715 135.034 42.9334C134.408 43.1704 133.748 43.3034 133.079 43.3274C131.754 43.4493 130.564 42.5145 130.369 41.1977C130.27 40.4748 130.39 39.7399 130.713 39.085C131.059 38.2831 131.474 37.5122 131.952 36.7813L132.177 36.4374C131.366 36.9633 130.56 37.4982 129.76 38.0431C128.969 38.5961 128.112 39.05 127.209 39.3949H127.068C126.285 39.3949 126.251 38.3581 126.719 37.8962L126.775 37.8402L126.854 37.8122C127.332 37.6092 127.788 37.3603 128.217 37.0683C128.758 36.7154 129.295 36.3534 129.827 35.9815C130.36 35.6095 130.882 35.2546 131.393 34.9166C131.827 34.6297 132.272 34.3537 132.734 34.0887C133.731 33.5588 134.757 32.709 135.855 33.6158C136.097 33.7838 136.168 34.1107 136.018 34.3647C135.137 35.3955 134.427 36.5614 133.917 37.8182C133.679 38.4371 133.583 39.101 133.635 39.7619C133.677 39.9889 133.791 40.1968 133.962 40.3538C134.126 40.5098 134.317 40.6338 134.525 40.7197C134.739 40.8187 134.971 40.8707 135.207 40.8717C136.171 40.8017 137.095 40.4578 137.871 39.8799C138.914 39.201 139.901 38.4401 140.823 37.6042C141.651 36.8383 142.457 36.0384 143.211 35.1986C143.584 34.8206 143.928 34.4157 144.242 33.9878V33.9488L144.27 33.9098C144.396 33.7158 144.603 33.5898 144.833 33.5658C145.155 33.5708 145.425 33.8098 145.47 34.1287C145.552 34.5297 145.466 34.9466 145.233 35.2836C144.185 37.2063 143.152 39.133 142.135 41.0627C141.189 42.8504 140.25 44.6452 139.318 46.4479C140.212 46.3049 141.108 46.1929 142.005 46.1099C143.165 46.005 144.329 45.952 145.497 45.952C146.291 45.952 147.091 45.952 147.886 45.98L149.575 46.0139C150.098 45.957 150.62 46.1249 151.012 46.4759C151.263 46.7608 151.439 47.1028 151.525 47.4727C151.931 49.3994 148.625 48.5996 147.774 48.5546C146.647 48.4866 145.52 48.4646 144.394 48.4646C143.267 48.4646 142.181 48.4646 141.077 48.5546C140.097 48.6106 139.122 48.7145 138.153 48.8645L138.13 48.8585H138.131ZM135.704 49.3714C127.649 51.1512 117.182 57.4212 119.227 67.0868C119.377 67.6887 119.653 68.2516 120.038 68.7375C120.352 69.2225 120.891 69.5134 121.469 69.5094C122.149 69.3964 122.776 69.0715 123.26 68.5796C124.185 67.7487 125.035 66.8378 125.801 65.859C126.849 64.5582 127.824 63.1774 128.742 61.7806C131.293 57.7782 133.618 53.6348 135.704 49.3714V49.3714ZM161.249 37.2943L161.503 37.1703L162.792 36.4884C163.439 36.1514 164.055 35.7595 164.634 35.3166C164.975 35.0556 165.272 34.7416 165.513 34.3867C165.68 34.1057 165.868 33.8388 166.076 33.5868C166.287 33.3289 166.621 33.2049 166.949 33.2599C167.267 33.2539 167.578 33.3479 167.839 33.5298C168.146 33.7958 168.257 34.2237 168.121 34.6057C168.06 34.8556 167.947 35.0896 167.789 35.2926L167.04 36.2274C166.719 36.6334 166.409 37.0553 166.122 37.4832C166.059 38.0351 165.886 38.5701 165.615 39.055C165.882 38.935 166.15 38.82 166.421 38.711L167.813 38.1481C167.977 37.9882 168.129 37.8162 168.269 37.6352C168.41 37.4432 168.568 37.2583 168.725 37.0723C168.883 36.8863 169.102 36.6614 169.288 36.4644L170.222 35.5295C171.349 34.4027 173.253 32.668 174.983 32.674C175.379 32.716 175.751 32.8819 176.047 33.1469C176.712 33.7498 176.323 35.2706 175.738 35.8005C175.384 36.1004 174.952 36.2964 174.493 36.3634C173.985 36.4474 173.468 36.4684 172.955 36.4254C172.577 36.4484 172.218 36.5974 171.935 36.8483C171.36 37.2943 170.824 37.7902 170.335 38.3301C169.773 38.927 169.384 39.6649 169.209 40.4648C169.054 41.1937 169.264 41.9526 169.771 42.4985C170.165 42.9834 171.81 42.8424 172.334 42.7914C173.374 42.6545 174.394 42.3915 175.371 42.0086C176.367 41.6296 177.34 41.1897 178.283 40.6907C178.779 40.4258 179.275 40.1278 179.759 39.8519C179.249 40.6018 178.868 41.4316 178.632 42.3075C177.456 42.9664 176.229 43.5313 174.965 43.9973C173.141 44.7051 171.203 45.0721 169.248 45.0791C168.76 45.0411 168.286 44.8951 167.862 44.6512C167.419 44.3812 167.083 43.9683 166.91 43.4793C166.713 42.8794 166.675 42.2395 166.797 41.6206C166.891 41.0757 167.044 40.5438 167.253 40.0318L166.785 40.2178C166.374 40.3688 165.978 40.5578 165.602 40.7807C164.92 41.0937 164.281 41.4916 163.698 41.9636C163.375 42.2375 163.104 42.5675 162.898 42.9384C162.612 43.4003 162.11 44.1272 161.496 44.1272C161.149 44.1412 160.809 44.0282 160.538 43.8123C160.243 43.5173 160.134 43.0844 160.256 42.6855V42.6015C160.348 42.4135 160.468 42.2415 160.611 42.0885C160.763 41.8636 160.938 41.6376 161.101 41.4186C161.371 41.0637 161.619 40.6918 161.867 40.2918C162.115 39.8919 162.391 39.4469 162.628 39.007C162.77 38.75 162.889 38.4801 162.982 38.2011C162.679 38.3511 162.371 38.4961 162.059 38.6351C161.61 38.846 161.152 39.034 160.684 39.198L159.985 39.4179C159.867 39.5659 159.741 39.7069 159.608 39.8409C158.598 40.9227 157.452 41.8686 156.2 42.6575C154.96 43.4603 153.638 44.1302 152.257 44.6572C151.706 44.8661 151.141 45.0381 150.567 45.1701C148.399 45.66 145.633 44.4882 148.106 41.8806C149.086 40.8497 150.775 39.5769 152.229 39.5769C152.742 39.5769 152.877 40.0448 152.792 40.5458C152.674 40.8997 152.457 41.2127 152.167 41.4466L152.122 41.4806H152.071C151.585 41.7366 151.138 42.0585 150.741 42.4385C150.388 42.7274 150.104 43.0914 149.907 43.5033H150.065C150.767 43.4953 151.459 43.3364 152.093 43.0354C153.007 42.6465 153.881 42.1695 154.701 41.6106C155.552 41.0397 156.332 40.3698 157.027 39.6169C157.604 39.038 158.021 38.3201 158.238 37.5322C158.436 36.9313 158.364 36.2734 158.041 35.7295C157.618 35.2166 156.548 35.1216 155.957 35.0986C155.076 35.1056 154.208 35.3156 153.422 35.7125C150.814 36.9853 148.189 39.329 145.693 40.2188H145.552C144.769 40.2188 144.735 39.182 145.203 38.72L145.259 38.6641L145.338 38.6361C145.816 38.4331 146.272 38.1841 146.701 37.8922C149.72 35.9205 151.489 34.6537 154.914 33.0649C155.964 32.547 157.122 32.288 158.293 32.31C159.25 32.299 160.168 32.694 160.817 33.3968C161.554 34.2387 161.805 35.4015 161.482 36.4724C161.428 36.7253 161.357 36.9733 161.268 37.2163L161.245 37.2953L161.249 37.2943ZM182.581 39.7559L182.542 39.8289L182.497 39.9249L182.581 39.7559H182.581ZM191.103 31.3062C190.8 30.0314 190.401 28.7805 189.909 27.5657C189.406 26.3339 188.918 25.0971 188.445 23.8533C187.942 22.5135 187.69 21.0927 187.701 19.6619C187.701 16.1584 195.919 14.2037 198.606 13.5728C199.992 13.2459 201.378 12.9249 202.768 12.615C203.359 12.493 203.939 12.324 204.503 12.1081C204.85 11.9571 205.208 11.8321 205.573 11.7361C206.272 11.5841 206.604 12.209 206.728 12.79C206.807 13.3189 206.591 13.8478 206.165 14.1697C205.692 14.5827 205.165 14.9296 204.599 15.2006C203.939 15.5275 203.257 15.8095 202.561 16.0455C201.901 16.2694 201.23 16.4574 200.55 16.6084C197.508 17.3913 194.427 17.9882 191.402 18.862C189.774 19.318 189.285 18.947 189.599 20.6928C189.772 21.5936 190.017 22.4785 190.331 23.3404C190.707 24.3472 191.069 25.3511 191.418 26.3539C192.984 30.6073 194.297 34.7586 191.266 38.746C190.508 39.7059 189.669 40.5988 188.76 41.4156C187.619 42.4895 186.362 43.4343 185.014 44.2322C183.739 44.9701 182.291 45.353 180.818 45.342C179.381 45.342 178.564 44.5872 178.564 43.1284C178.669 41.9496 179.09 40.8217 179.781 39.8609C180.6 38.5861 181.544 37.3952 182.598 36.3064C183.624 35.2246 184.757 34.2467 185.977 33.3889C186.822 32.8259 187.983 32.133 189.042 32.133C189.347 32.136 189.643 32.244 189.88 32.437C190.13 32.599 190.29 32.8669 190.314 33.1639C190.315 33.4598 190.086 33.7068 189.79 33.7268C189.645 33.7528 189.498 33.7658 189.351 33.7658C188.789 33.7658 187.932 34.3287 187.504 34.6557C186.579 35.3356 185.711 36.0894 184.907 36.9093C184.086 37.7232 183.351 38.6191 182.715 39.5849C182.249 40.2148 181.95 40.9537 181.848 41.7306C181.848 42.4175 182.124 42.6934 182.81 42.6934C183.828 42.6635 184.812 42.3195 185.627 41.7076C186.61 41.0257 187.517 40.2398 188.331 39.3639C189.069 38.5861 189.743 37.7492 190.347 36.8633C191.457 35.1226 191.603 33.4158 191.102 31.3032L191.103 31.3062ZM200.302 43.2144L199.981 43.3893C199.36 43.7133 198.723 44.0053 198.071 44.2622C197.395 44.5362 196.708 44.7781 196.009 44.9891C195.378 45.1941 194.719 45.3061 194.055 45.3211C193.348 45.374 192.646 45.1741 192.072 44.7581C191.645 44.3962 191.402 43.8643 191.407 43.3044C191.407 42.1775 192.106 41.0177 192.731 40.1438C193.661 38.871 194.754 37.7252 195.981 36.7363C197.306 35.6495 198.754 34.7236 200.296 33.9758C201.722 33.2449 203.295 32.8479 204.898 32.8149C205.521 32.7689 206.14 32.9359 206.656 33.2879C207.04 33.6358 207.247 34.1387 207.219 34.6567C207.192 35.4795 206.808 36.2484 206.165 36.7633C205.607 37.2733 205.004 37.7312 204.362 38.1321C204.189 38.2301 203.997 38.2881 203.799 38.3011C203.592 38.2821 203.396 38.2011 203.236 38.0701C202.993 37.9052 202.847 37.6312 202.847 37.3383C202.847 36.7013 203.636 35.9635 204.013 35.4515C204.146 35.2886 204.237 35.0946 204.278 34.8886L204.233 34.8156C204.016 34.7516 203.789 34.7226 203.563 34.7306C202.708 34.7986 201.879 35.0506 201.13 35.4685C200.092 35.9915 199.114 36.6244 198.212 37.3553C197.333 38.0511 196.527 38.834 195.807 39.6929C195.31 40.2278 194.992 40.9057 194.9 41.6306C194.881 41.9096 195.023 42.1745 195.266 42.3125C195.578 42.5025 195.936 42.5995 196.302 42.5945C196.788 42.5785 197.268 42.4815 197.722 42.3075C198.282 42.1085 198.832 41.8846 199.373 41.6376C199.861 41.4146 200.335 41.1627 200.793 40.8827C201.065 40.7287 201.321 40.5498 201.559 40.3478L201.936 39.9759C202.138 39.7549 202.42 39.6229 202.718 39.6099C202.916 39.6229 203.109 39.6809 203.281 39.7789C204.244 40.2638 203.501 40.9677 203.281 41.5756C203.217 41.7566 203.183 41.9466 203.18 42.1385C203.18 42.5325 203.586 42.5445 203.895 42.5445C204.377 42.5375 204.856 42.4685 205.32 42.3415C205.876 42.1955 206.428 42.0315 206.976 41.8516C207.494 41.6766 208.007 41.4966 208.514 41.2887C208.88 41.1477 209.245 41.0017 209.606 40.8827L211.448 40.1508C211.933 39.9089 212.575 39.5259 212.935 40.1508C213.03 40.2968 213.082 40.4668 213.087 40.6408C213.096 40.9247 212.957 41.1927 212.721 41.3506H212.687L209.87 42.4775C209.34 42.6915 208.812 42.9054 208.288 43.1314C207.595 43.4243 206.885 43.6943 206.175 43.9203C205.465 44.1452 204.71 44.3882 203.972 44.5792C203.33 44.7601 202.667 44.8591 202.001 44.8721C201.195 44.8721 200.311 44.6242 200.311 43.6553C200.296 43.5093 200.292 43.3623 200.3 43.2164L200.302 43.2144ZM78.8611 45.462L78.6981 45.885L78.5682 46.2739C78.5222 46.4839 78.4212 46.6788 78.2752 46.8368C78.1742 46.9198 78.0502 46.9708 77.9203 46.9828C77.7333 47.0078 77.5443 47.0078 77.3574 46.9828L76.7544 46.8978C76.4745 46.8748 76.2175 46.7358 76.0445 46.5149C75.9706 46.3889 75.9426 46.2419 75.9656 46.0979C75.9956 45.895 76.0505 45.696 76.1285 45.506C76.3085 45.0271 76.5175 44.5542 76.7254 44.0862C76.9954 43.4783 77.2884 42.8754 77.5703 42.2785C78.2632 40.8477 78.9781 39.4339 79.711 38.0202C80.5819 36.3344 81.4667 34.6557 82.3646 32.9839C82.9055 31.9701 83.4514 30.9602 84.0033 29.9534C85.3811 27.4297 86.7689 24.9101 88.1657 22.3935C89.2096 20.5158 90.2634 18.6511 91.3262 16.8003C91.7392 16.0795 92.1641 15.3656 92.5991 14.6597C92.888 14.1907 93.179 13.7228 93.4719 13.2569C93.217 13.0449 92.95 12.8469 92.672 12.665C92.3171 12.428 91.9512 12.214 91.5792 12.0061C90.7403 11.5381 89.8615 11.1162 88.9766 10.7333C88.0917 10.3503 87.2869 10.0344 86.431 9.73641C86.048 9.60143 85.6591 9.47745 85.2702 9.35947C84.8812 9.24149 84.6003 9.1675 84.2623 9.09451C83.7484 8.97753 83.2275 8.89454 82.7015 8.84655C82.2146 8.80355 81.7247 8.80355 81.2368 8.84655C80.3749 8.89654 79.547 9.20249 78.8601 9.72541C78.0482 10.4493 77.5963 11.4941 77.6263 12.581C77.6213 12.8599 77.6533 13.1389 77.7223 13.4089C77.8113 13.7718 77.9323 14.1258 78.0832 14.4677C78.2732 14.9026 78.4892 15.3266 78.7311 15.7355C79.0241 16.2364 79.351 16.7274 79.689 17.1943L81.2498 19.357L81.7347 19.9199L82.1236 20.3478C82.3176 20.5248 82.4376 20.7678 82.4616 21.0297C82.4276 21.3957 81.8477 21.6666 81.5437 21.8126C81.1358 22.0446 80.6859 22.1935 80.2199 22.2515C79.983 22.2635 79.757 22.1475 79.628 21.9476L78.7551 20.7478L77.1724 18.2631C76.2075 16.8323 75.7386 15.1246 75.8376 13.4019C75.8336 11.7641 76.5165 10.1993 77.7193 9.08751C78.9761 8.10066 80.5109 7.53175 82.1076 7.45976C83.0015 7.38377 83.9004 7.38377 84.7942 7.45976C85.7401 7.53774 86.6809 7.67272 87.6108 7.8657C89.0626 8.16465 90.4894 8.57159 91.8802 9.08251C92.5111 9.31348 93.131 9.56144 93.7389 9.8374C94.2458 10.0684 94.7467 10.3103 95.2377 10.5863L96.3645 9.03752C96.8654 8.33862 96.8204 8.36162 97.3503 7.67972C97.8383 7.04682 98.3672 6.44691 98.9331 5.88299C99.305 5.51705 100.403 4.75616 100.961 5.1901C101.074 5.31108 101.123 5.47805 101.091 5.64103C100.996 6.13496 100.779 6.59789 100.46 6.98683C100.015 7.60074 99.53 8.19265 99.0681 8.78956C98.6062 9.38647 98.1782 9.91639 97.7553 10.5133C97.5923 10.7383 97.4283 10.9642 97.2823 11.1952C97.1974 11.3202 97.1204 11.4502 97.0514 11.5841C98.5492 12.624 99.9669 13.7748 101.293 15.0256C105.895 19.352 108.272 25.525 106.847 31.7841C105.636 37.0903 102.589 40.2338 97.7383 42.4865C96.2285 43.1854 94.6597 43.7513 93.052 44.1762C91.5302 44.5802 89.9805 44.8741 88.4157 45.0551C85.4831 45.351 82.5356 45.473 79.589 45.421L78.8621 45.46L78.8611 45.462ZM95.4046 14.2327L94.6328 15.3086C93.9459 16.2834 93.258 17.2743 92.65 18.3001C91.7342 19.8439 90.8423 21.3997 89.9745 22.9694C89.0016 24.7192 88.0517 26.4809 87.1239 28.2536C86.196 30.0264 85.2952 31.7951 84.4203 33.5598C83.6354 35.1106 82.8635 36.6674 82.1056 38.2291L81.7227 39.029L81.0688 40.4038L80.4149 41.8006L80.1779 42.3135L80.0989 42.4935C80.6619 42.5445 81.1918 42.5725 81.7377 42.5895C85.7851 42.7204 89.8345 42.3935 93.8089 41.6146C94.5128 41.4686 95.2167 41.2937 95.8986 41.0517C96.4795 40.8787 97.0454 40.6558 97.5883 40.3868C102.492 37.9632 105.209 32.598 104.263 27.2118C103.835 24.4662 102.73 21.8696 101.047 19.6579C100.242 18.5691 99.343 17.5532 98.3602 16.6214C97.4393 15.7525 96.4545 14.9546 95.4146 14.2327H95.4036H95.4046ZM114.913 37.5872C113.223 40.0998 111.668 42.6565 110.198 45.3211C107.664 49.8664 105.816 53.4098 103.258 57.9332C101.972 60.2408 100.534 62.4615 98.9551 64.5802C97.6953 66.2969 96.2245 67.8487 94.5788 69.1995C91.9372 71.2162 90.1174 71.5201 88.9456 70.8222C85.3571 68.6305 88.2807 60.8797 90.0724 58.0181C95.0297 50.2053 105.907 40.6008 112.086 36.9963C112.39 36.3034 112.756 35.5765 113.1 34.8616C113.444 34.1467 113.714 33.5608 114.046 32.9519C114.378 32.344 114.773 31.9891 115.804 32.09C116.451 32.152 117.082 32.405 117.189 32.8959C117.197 33.3389 117.093 33.7768 116.885 34.1687L116.71 34.5517C117.656 34.1237 118.625 33.7478 119.611 33.4248C120.698 33.0369 121.838 32.8209 122.99 32.7829C124.275 32.7829 126.139 33.7408 126.421 35.0976C126.618 36.1474 126.321 37.2303 125.615 38.0321C124.824 38.985 123.884 39.8029 122.833 40.4548C121.143 41.5306 118.27 42.9164 116.236 42.9164C115.313 42.9164 113.702 42.2065 113.482 41.1647C113.417 40.8667 113.465 40.5558 113.617 40.2918C113.75 40.0628 113.915 39.8539 114.107 39.6719C114.279 39.5009 114.468 39.349 114.67 39.216C114.861 39.083 115.086 39.007 115.318 38.996C115.681 38.975 116.033 39.12 116.275 39.3899C116.43 39.5759 116.572 39.7739 116.698 39.9819C116.86 40.1618 117.051 40.3138 117.261 40.4328C117.584 40.6118 117.951 40.6957 118.32 40.6748C118.972 40.6738 119.617 40.5378 120.213 40.2748C120.816 40.0139 121.369 39.6499 121.847 39.199C122.29 38.786 122.656 38.2971 122.928 37.7572C123.655 36.2754 122.889 35.3186 121.374 35.3186C120.431 35.3626 119.501 35.5645 118.625 35.9155C117.357 36.3964 116.124 36.9613 114.93 37.6052L114.913 37.5882V37.5872ZM108.153 45.0341C108.987 43.3813 109.816 41.7276 110.642 40.0718C105.758 43.2374 97.4503 50.7292 93.287 57.3142C92.1101 59.049 91.1723 60.9337 90.4984 62.9194C89.3265 67.0368 89.8735 70.7492 94.7677 66.0509C95.9535 64.8821 97.0234 63.6013 97.9612 62.2265C99.454 60.2158 100.829 58.1091 102.124 55.9685C104.489 51.9861 105.977 49.2655 108.117 45.0401L108.151 45.0341H108.153Z" fill="white"/>
</svg>
